<?xml version="1.0" encoding="UTF-8" standalone="no"?>
<!DOCTYPE svg PUBLIC "-//W3C//DTD SVG 1.1//EN"
 "http://www.w3.org/Graphics/SVG/1.1/DTD/svg11.dtd">
<!-- Generated by graphviz version 12.1.1 (20240910.0053)
 -->
<!-- Title: INFRA Pages: 1 -->
<svg width="278pt" height="80pt"
 viewBox="0.00 0.00 278.49 80.00" xmlns="http://www.w3.org/2000/svg" xmlns:xlink="http://www.w3.org/1999/xlink">
<g id="graph0" class="graph" transform="scale(1 1) rotate(0) translate(4 76)">
<title>INFRA</title>
<polygon fill="white" stroke="none" points="-4,4 -4,-76 274.49,-76 274.49,4 -4,4"/>
<!-- mysql_container -->
<g id="node1" class="node">
<title>mysql_container</title>
<path fill="#ffcfb3" stroke="black" stroke-width="2" d="M132.72,-65.45C132.72,-69.07 102.97,-72 66.36,-72 29.74,-72 0,-69.07 0,-65.45 0,-65.45 0,-6.55 0,-6.55 0,-2.93 29.74,0 66.36,0 102.97,0 132.72,-2.93 132.72,-6.55 132.72,-6.55 132.72,-65.45 132.72,-65.45"/>
<path fill="none" stroke="black" stroke-width="2" d="M132.72,-65.45C132.72,-61.84 102.97,-58.91 66.36,-58.91 29.74,-58.91 0,-61.84 0,-65.45"/>
<text text-anchor="middle" x="66.36" y="-40.2" font-family="Arial" font-size="14.00">mysql_container</text>
<text text-anchor="middle" x="66.36" y="-23.4" font-family="Arial" font-size="14.00">(docker::container)</text>
</g>
<!-- mysql_data -->
<g id="node2" class="node">
<title>mysql_data</title>
<path fill="#fff5cd" stroke="black" stroke-width="2" d="M270.49,-65.45C270.49,-69.07 243.54,-72 210.36,-72 177.18,-72 150.23,-69.07 150.23,-65.45 150.23,-65.45 150.23,-6.55 150.23,-6.55 150.23,-2.93 177.18,0 210.36,0 243.54,0 270.49,-2.93 270.49,-6.55 270.49,-6.55 270.49,-65.45 270.49,-65.45"/>
<path fill="none" stroke="black" stroke-width="2" d="M270.49,-65.45C270.49,-61.84 243.54,-58.91 210.36,-58.91 177.18,-58.91 150.23,-61.84 150.23,-65.45"/>
<text text-anchor="middle" x="210.36" y="-40.2" font-family="Arial" font-size="14.00">mysql_data</text>
<text text-anchor="middle" x="210.36" y="-23.4" font-family="Arial" font-size="14.00">(docker::volume)</text>
</g>
</g>
</svg>
